<?xml version="1.0" encoding="UTF-8" standalone="no"?><!DOCTYPE svg PUBLIC "-//W3C//DTD SVG 1.1//EN" "http://www.w3.org/Graphics/SVG/1.1/DTD/svg11.dtd"><svg width="100%" height="100%" viewBox="0 0 300 300" version="1.1" xmlns="http://www.w3.org/2000/svg" xmlns:xlink="http://www.w3.org/1999/xlink" xml:space="preserve" xmlns:serif="http://www.serif.com/" style="fill-rule:evenodd;clip-rule:evenodd;stroke-linejoin:round;stroke-miterlimit:2;"><g id="uon-logo"><rect id="uon-logo-box" x="0" y="0" width="300" height="300" style="fill-rule:nonzero;"/><g id="uon-logo-wordmark"><path d="M55.1,175.7l0,1.4l3.6,-0l0,9.7l2,-0l0,-9.7l3.7,-0l0,-1.4l-9.3,-0" style="fill:#fff;fill-rule:nonzero;"/><path d="M75.3,181.8l0,5l2,0l0,-11.1l-2,0l0,4.7l-5.2,0l0,-4.7l-2,0l0,11.1l2,0l0,-5l5.2,0" style="fill:#fff;fill-rule:nonzero;"/><path d="M89.1,186.8l-0,-1.4l-4.9,0l-0,-3.6l3.5,0l-0,-1.4l-3.5,0l-0,-3.2l4.8,0l-0,-1.4l-6.7,0l-0,11.1l6.8,0" style="fill:#fff;fill-rule:nonzero;"/><path d="M110.8,183l0,-7.3l-1.9,0l0,7.3c0,1.4 -0.8,2.6 -2.7,2.6c-1.7,0 -2.6,-0.9 -2.6,-2.6l0,-7.3l-2,0l0,7.3c0,2.6 1.6,4 4.6,4c3.7,0 4.6,-2.5 4.6,-4" style="fill:#fff;fill-rule:nonzero;"/><path d="M125.7,175.7l-1.8,-0l0,8l-6.4,-8l-1.8,-0l0,11.1l1.9,-0l0,-8l6.4,8l1.8,-0l-0.1,-11.1" style="fill:#fff;fill-rule:nonzero;"/><rect x="130.9" y="175.7" width="2" height="11.1" style="fill:#fff;fill-rule:nonzero;"/><path d="M141.4,186.9l4.2,-11.2l-1.8,0l-2.7,7.6l-2.5,-7.6l-2,0l3.8,11.2l1,0" style="fill:#fff;fill-rule:nonzero;"/><path d="M156.4,186.8l0,-1.4l-4.9,0l0,-3.6l3.5,0l0,-1.4l-3.5,0l0,-3.2l4.8,0l0,-1.4l-6.7,0l0,11.1l6.8,0" style="fill:#fff;fill-rule:nonzero;"/><path d="M162.9,180.5l0,-3.4l0.9,0c1.5,0 2.4,0.6 2.4,1.6c0,0.9 -0.9,1.7 -2.4,1.7l-0.9,0l0,0.1Zm4.4,6.5l2.2,-0.2l-3.4,-5.3c0.9,-0.4 2.1,-1.4 2.1,-3c0,-1.2 -1.1,-2.8 -3.8,-2.8l-3.4,0l0,11.1l2,0l0,-4.9l1.2,0l3.1,5.1" style="fill:#fff;fill-rule:nonzero;"/><path d="M176.1,185.6c-1.5,0 -2.5,-0.6 -3,-0.8l-0.6,1.3c0.6,0.3 1.8,0.9 3.6,0.9c1.3,0 3.9,-1 3.9,-3.1c0,-2 -2.1,-2.9 -3.1,-3.4c-1.2,-0.7 -2.3,-1.3 -2.3,-2.2c0,-0.6 0.6,-1.3 1.7,-1.3c1.2,0 1.9,0.2 2.5,0.5l0.5,-1.3c-0.6,-0.3 -1.6,-0.7 -3.1,-0.7c-2.1,0 -3.5,1.4 -3.5,3c0,2 1.8,2.9 2.9,3.5c1.3,0.7 2.4,1.2 2.4,2.2c0,0.8 -0.9,1.4 -1.9,1.4" style="fill:#fff;fill-rule:nonzero;"/><rect x="184.3" y="175.7" width="2" height="11.1" style="fill:#fff;fill-rule:nonzero;"/><path d="M190.1,175.7l0,1.4l3.6,-0l0,9.7l2,-0l0,-9.7l3.7,-0l0,-1.4l-9.3,-0" style="fill:#fff;fill-rule:nonzero;"/><path d="M211.7,175.7l-1.9,-0l-2.7,4.4l-2.8,-4.4l-2.1,-0l3.8,5.7l-0,5.4l2,-0l-0,-5.4l3.7,-5.7" style="fill:#fff;fill-rule:nonzero;"/><path d="M228.1,176.9c2.2,0 3.7,1.7 3.7,4.3c0,2.6 -1.5,4.4 -3.7,4.4c-2.2,0 -3.7,-1.7 -3.7,-4.4c0.1,-2.5 1.5,-4.3 3.7,-4.3Zm5.8,4.4c0,-3.4 -2.3,-5.8 -5.8,-5.8c-3.4,0 -5.8,2.4 -5.8,5.8c0,3.6 2.5,5.8 5.8,5.8c3.2,-0.1 5.8,-2.3 5.8,-5.8" style="fill:#fff;fill-rule:nonzero;"/><path d="M238,186.8l2,0l0,-5l3.1,0l0,-1.4l-3.1,0l0,-3.2l4.4,0l0,-1.4l-6.4,0l0,11" style="fill:#fff;fill-rule:nonzero;"/><path d="M76.4,197l-3.8,0l0,16.7l-13.2,-16.7l-3.7,0l-0,23l3.9,0l-0,-16.6l13.2,16.6l3.7,0l0,-23" style="fill:#fff;fill-rule:nonzero;"/><path d="M96.2,220l0,-3l-10.3,0l0,-7.4l7.2,0l0,-3l-7.2,0l0,-6.7l9.9,0l0,-3l-14,0l0,23l14.4,0" style="fill:#fff;fill-rule:nonzero;"/><path d="M108.4,220.2l4.6,-12.1l4,12.1l2.1,-0l8.7,-23.2l-3.8,-0l-5.5,15.8l-5.1,-15.8l-4.2,-0l2.2,6.7l-3.4,9.5l-5.3,-16.2l-4.2,-0l7.8,23.2l2.1,-0" style="fill:#fff;fill-rule:nonzero;"/><path d="M149.4,218.5l-1.3,-2.5c-1.1,0.5 -2.9,1.5 -6.6,1.5c-5.3,0 -8.4,-3.7 -8.4,-9c0,-5.2 3,-9 8,-9c3.7,0 5.7,1.2 6.5,1.6l1.3,-2.8c-1,-0.4 -3.4,-1.8 -7.9,-1.8c-8.1,0 -12.4,6 -12.4,12c0,5.9 4.3,12 12.4,12c4.6,0 6.7,-1 8.4,-2" style="fill:#fff;fill-rule:nonzero;"/><path d="M164,211.3l-5.6,0l2.9,-6.9l2.7,6.9Zm-9.2,8.7l2.4,-5.7l7.9,0l2.2,5.7l4.3,0l-9.1,-23.1l-1.5,0l-10.2,23.1l4,0" style="fill:#fff;fill-rule:nonzero;"/><path d="M181.6,217.5c-3,0 -5.2,-1.2 -6.3,-1.7l-1.3,2.7c1.3,0.6 3.7,1.9 7.6,1.9c2.8,0 8,-2 8,-6.5c0,-4.2 -4.3,-6 -6.5,-7.2c-2.5,-1.4 -4.8,-2.6 -4.8,-4.6c0,-1.3 1.3,-2.7 3.6,-2.7c2.5,0 4,0.5 5.2,1l1.1,-2.6c-1.3,-0.6 -3.3,-1.4 -6.4,-1.4c-4.3,0 -7.3,2.9 -7.3,6.2c0,4.1 3.7,6.1 6,7.3c2.6,1.4 5,2.5 5,4.5c0.1,1.8 -1.7,3.1 -3.9,3.1" style="fill:#fff;fill-rule:nonzero;"/><path d="M191.6,197l0,3l7.5,0l0,20l4.1,0l0,-20.1l7.6,0l0,-3l-19.2,0" style="fill:#fff;fill-rule:nonzero;"/><path d="M218.4,217l0,-20l-4.1,0l0,23l12.9,0l0,-3l-8.8,0" style="fill:#fff;fill-rule:nonzero;"/><path d="M244.7,220l-0,-3l-10.3,0l-0,-7.4l7.2,0l-0,-3l-7.2,0l-0,-6.7l9.9,0l-0,-3l-14,0l-0,23l14.4,0" style="fill:#fff;fill-rule:nonzero;"/><path d="M106.4,237l-2.7,0l1.4,-3.3l1.3,3.3Zm-4.4,4.2l1.1,-2.8l3.8,0l1.1,2.8l2.1,0l-4.4,-11.1l-0.7,0l-4.9,11.1l1.9,0" style="fill:#fff;fill-rule:nonzero;"/><path d="M122.7,237.4l0,-7.3l-1.9,0l0,7.3c0,1.4 -0.8,2.6 -2.7,2.6c-1.7,0 -2.6,-0.9 -2.6,-2.6l0,-7.3l-2,0l0,7.3c0,2.6 1.6,4 4.6,4c3.7,0.1 4.6,-2.5 4.6,-4" style="fill:#fff;fill-rule:nonzero;"/><path d="M130.5,240c-1.5,0 -2.5,-0.6 -3,-0.8l-0.6,1.3c0.6,0.3 1.8,0.9 3.6,0.9c1.3,0 3.9,-1 3.9,-3.1c0,-2 -2.1,-2.9 -3.1,-3.4c-1.2,-0.7 -2.3,-1.3 -2.3,-2.2c0,-0.6 0.6,-1.3 1.7,-1.3c1.2,0 1.9,0.2 2.5,0.5l0.5,-1.3c-0.6,-0.3 -1.6,-0.7 -3.1,-0.7c-2.1,0 -3.5,1.4 -3.5,3c0,2 1.8,2.9 2.9,3.5c1.3,0.7 2.4,1.2 2.4,2.2c0,0.8 -0.8,1.4 -1.9,1.4" style="fill:#fff;fill-rule:nonzero;"/><path d="M137.4,230.1l0,1.4l3.6,0l0,9.7l2,0l0,-9.7l3.7,0l0,-1.4l-9.3,0" style="fill:#fff;fill-rule:nonzero;"/><path d="M152.3,234.9l0,-3.4l0.9,0c1.5,0 2.4,0.6 2.4,1.6c0,0.9 -0.9,1.7 -2.4,1.7l-0.9,0l0,0.1Zm4.4,6.5l2.2,-0.2l-3.4,-5.3c0.9,-0.4 2.1,-1.4 2.1,-3c-0,-1.2 -1.1,-2.8 -3.8,-2.8l-3.4,0l-0,11.1l2,0l-0,-4.9l1.2,0l3.1,5.1" style="fill:#fff;fill-rule:nonzero;"/><path d="M167.6,237l-2.7,0l1.4,-3.3l1.3,3.3Zm-4.4,4.2l1.1,-2.8l3.8,0l1.1,2.8l2.1,0l-4.4,-11.1l-0.7,0l-4.9,11.1l1.9,0" style="fill:#fff;fill-rule:nonzero;"/><path d="M176.9,239.8l0,-9.7l-2,0l0,11.1l6.2,0l0,-1.4l-4.2,0" style="fill:#fff;fill-rule:nonzero;"/><rect x="184.8" y="230.1" width="2" height="11.1" style="fill:#fff;fill-rule:nonzero;"/><path d="M196.7,237l-2.7,0l1.4,-3.3l1.3,3.3Zm-4.5,4.2l1.1,-2.8l3.8,0l1.1,2.8l2.1,0l-4.4,-11.1l-0.8,0l-4.9,11.1l2,0" style="fill:#fff;fill-rule:nonzero;"/></g><path id="uon-logo-seahorse" d="M142.6,60.8c-12.6,-0 -44.9,15.9 -44.9,50.4c0,28.5 20.4,44.5 36.3,49.6c0,-0 2,-2.1 2,-5.3c0,-7.2 -19.4,-16.6 -19.4,-31.5c0,-12.5 10.4,-17.5 15.9,-17.5c2.1,-0 3.2,0.6 3.4,0.7l0,0.1c0,-0 0,0.1 -0.1,0.1c-1.8,-0 -8.6,2.9 -8.6,11c0,20.7 43.7,16.7 43.7,35.5c0,4.1 -3.1,6.3 -3.1,6.3c6.4,-2.3 11.5,-6.7 11.5,-15.4c0,-22.3 -36.9,-20.6 -36.9,-47c0,-12.7 11.2,-18.5 19.1,-18.5c7.2,0 9.7,5.6 9.7,5.6l0,0.1l-0.1,0c-0.3,-0.2 -1.7,-1.2 -5.1,-1.4c-4,-0.2 -10.9,2.7 -10.9,10c0,15.9 23,10.5 29.5,16.9c3.3,3.3 3.3,5.2 3.5,5.8c3.3,-0.6 6.6,-2.1 7,-2.3c0.2,-0.1 1.1,-0.4 1.1,-1.5c0,-1.2 -1.6,-1.9 -2.4,-2.4c-0.8,-0.6 -1.3,-1.2 -1.3,-2.3c0.1,-1.3 1.2,-1.9 1.9,-1.8c0.7,0 1,0.6 1,0.6c0,0 -0.2,-0.1 -0.5,-0.1c-0.4,0 -1,0.2 -1,1c0,1.1 1.3,1.3 2.8,1.8c1,0.3 2.6,1.1 3,1.6c0.7,-0.9 1.2,-2 1.2,-3.2l-36.6,-40.9c2.4,-6.7 9.7,-6.1 10.2,-6.1c0,0 0.1,0 0.1,-0.1c0,0 0,-0.1 -0.1,-0.1c0,0 -24.6,-11.2 -51,23.4l-0.1,0l0,-0.1c0,-0.1 4.6,-17.8 19.2,-23c0,0.1 0.1,0 0,0c0.1,0 0,0 0,0" style="fill:#fff;fill-rule:nonzero;"/></g></svg>